<svg xmlns="http://www.w3.org/2000/svg" viewBox="0 0 608 177.97"><defs><style>.cls-1{fill:#13ddff;}.cls-2{fill:#101063;}.cls-3{fill:#7777a5;}</style></defs><title>Ativo 1</title><g id="Camada_2" data-name="Camada 2"><g id="Camada_1-2" data-name="Camada 1"><path class="cls-1" d="M96.76,113.18h22.17l11.7-28.61H96.84a4.93,4.93,0,0,0-4.93,4.9l-.08,18.76A4.93,4.93,0,0,0,96.76,113.18Z"/><path class="cls-1" d="M107.08,142.13a53.73,53.73,0,0,1-14.67,2,51.11,51.11,0,0,1-20.65-4.23,52.9,52.9,0,0,1-16.91-11.63,54.48,54.48,0,0,1-11.38-17.48A56.31,56.31,0,0,1,39.3,89.05a56.4,56.4,0,0,1,4.17-21.77A54.54,54.54,0,0,1,54.85,49.81,52.9,52.9,0,0,1,71.76,38.18,51.11,51.11,0,0,1,92.41,34a51.75,51.75,0,0,1,18.38,3.23,4.9,4.9,0,0,0,6.12-2.45l10.92-22.27a4.94,4.94,0,0,0-2.74-6.8A93.62,93.62,0,0,0,92.41,0a94.68,94.68,0,0,0-46.7,12.13A91.53,91.53,0,0,0,27.05,26,89.64,89.64,0,0,0,12.62,44,87.25,87.25,0,0,0,3.3,65.23,84.68,84.68,0,0,0,0,88.92,85.66,85.66,0,0,0,3.3,112.8a86.67,86.67,0,0,0,9.32,21.33,90,90,0,0,0,33.09,31.78,95.92,95.92,0,0,0,22.07,8.89A94.39,94.39,0,0,0,92.41,178Z"/><path class="cls-2" d="M215,151.11H144.13l-9.46,23.76a4.92,4.92,0,0,1-4.57,3.1H91.77L159.82,3.55A4.93,4.93,0,0,1,164.41.42h30.33a4.93,4.93,0,0,1,4.59,3.13l65.43,167.71a4.92,4.92,0,0,1-4.58,6.71h-31a4.93,4.93,0,0,1-4.57-3.08Zm-57.33-33.58h43.78L181.55,66.39l-2-5.9h0l-2,5.9Z"/><path class="cls-3" d="M323.42,111.23h-2.59l-.5-4.24a16.31,16.31,0,0,1-11.5,4.9c-8.71,0-12.17-6-12.17-19.71,0-14.87,4-19.61,15.25-19.61a44.46,44.46,0,0,1,10.68,1.05l-.44,2.7a87,87,0,0,0-10-.55c-8.7,0-11.68,3.19-11.68,16.57,0,11.84,2.48,16.41,9.31,16.41,4.41,0,7.38-2.2,10.13-4.34V89.26h3.53Z"/><path class="cls-3" d="M361.52,92.23c0,14.71-3.8,19.66-14.64,19.66s-14.65-5-14.65-19.66,3.8-19.66,14.65-19.66S361.52,77.53,361.52,92.23Zm-25.55,0c0,12.34,2.76,16.47,10.91,16.47s10.84-4.13,10.84-16.47S355,75.77,346.88,75.77,336,79.9,336,92.23Z"/><path class="cls-3" d="M406.62,73.24a1.45,1.45,0,0,1,1.6,1.59l1.6,36.4h-3.58l-1.49-35h-1.21l-9.86,29.8a1.56,1.56,0,0,1-1.65,1.21H388.4a1.61,1.61,0,0,1-1.66-1.21l-9.91-29.8h-1.16l-1.43,35h-3.58l1.55-36.4a1.44,1.44,0,0,1,1.59-1.59h4.35a1.57,1.57,0,0,1,1.6,1.26l8.32,24.78c.55,1.77,1,3.42,1.54,5.18h1.21c.49-1.76,1.05-3.47,1.6-5.23l8.31-24.73a1.54,1.54,0,0,1,1.6-1.26Z"/><path class="cls-3" d="M443,111c-5.18.33-10.85.33-16.24.33-4.08,0-6.72-2.48-6.72-6.28V79.46c0-3.8,2.7-6.28,6.72-6.28,5.39,0,11.06,0,16.24.33l-.22,2.75H427.38c-2.37,0-3.69,1.38-3.69,4v9.31h17v2.92h-17v11.73c0,2.59,1.32,4,3.69,4H442.8Z"/><path class="cls-3" d="M473.25,73.51,473,76.15c-3.25-.16-7.05-.33-10.52-.33-6.06,0-8.54.22-8.54,6.78,0,4.68,1.55,6.28,5.24,7l7.93,1.65c5.78,1.16,7.71,4.3,7.71,10.41,0,8.87-4,10.19-12.34,10.19A72.26,72.26,0,0,1,450.9,111l.21-2.69c5.68.27,8,.32,11.46.32,6.39,0,8.54-1,8.54-7,0-5-1.55-6.39-5.29-7.11l-8.1-1.7c-5.45-1.11-7.43-4.36-7.43-10.3,0-8.93,3.8-10,12-9.86A62.09,62.09,0,0,1,473.25,73.51Z"/><path class="cls-3" d="M301.61,164.76l-4.18,12.55h-3.75l12.72-36.95a1.46,1.46,0,0,1,1.43-1H312a1.48,1.48,0,0,1,1.44,1l12.72,36.95h-3.75l-4.18-12.55Zm10.08-19.5c-.33-1-.72-2.09-1-3.08h-1.54c-.33,1-.67,2-1.05,3.08l-5.45,16.36h14.48Z"/><path class="cls-3" d="M354.15,139.59l-.28,2.64c-3.25-.16-7.05-.33-10.52-.33-6.06,0-8.53.22-8.53,6.78,0,4.68,1.54,6.28,5.23,7l7.93,1.65c5.78,1.16,7.71,4.3,7.71,10.41,0,8.87-4,10.19-12.34,10.19a72.26,72.26,0,0,1-11.56-.83l.22-2.69c5.67.27,8,.32,11.45.32,6.39-.05,8.54-1,8.54-7,0-5-1.54-6.39-5.29-7.11l-8.09-1.7c-5.46-1.11-7.44-4.36-7.44-10.3,0-8.93,3.8-10,12-9.86A62.28,62.28,0,0,1,354.15,139.59Z"/><path class="cls-3" d="M386,139.59l-.28,2.64c-3.25-.16-7.05-.33-10.52-.33-6.05,0-8.53.22-8.53,6.78,0,4.68,1.54,6.28,5.23,7l7.93,1.65c5.78,1.16,7.71,4.3,7.71,10.41,0,8.87-4,10.19-12.34,10.19a72.4,72.4,0,0,1-11.56-.83l.22-2.69c5.67.27,8,.32,11.46.32,6.38-.05,8.53-1,8.53-7,0-5-1.54-6.39-5.29-7.11l-8.09-1.7c-5.45-1.11-7.43-4.36-7.43-10.3,0-8.93,3.79-10,12-9.86A62.28,62.28,0,0,1,386,139.59Z"/><path class="cls-3" d="M419.45,177c-5.17.33-10.84.33-16.24.33-4.08,0-6.72-2.48-6.72-6.28V145.54c0-3.8,2.7-6.28,6.72-6.28,5.4,0,11.07,0,16.24.33l-.22,2.75H403.81c-2.36,0-3.69,1.38-3.69,4v9.31h17v2.92h-17v11.73c0,2.59,1.33,4,3.69,4h15.42Z"/><path class="cls-3" d="M449.69,139.59l-.28,2.64c-3.25-.16-7.05-.33-10.52-.33-6.06,0-8.53.22-8.53,6.78,0,4.68,1.54,6.28,5.23,7l7.93,1.65c5.78,1.16,7.71,4.3,7.71,10.41,0,8.87-4,10.19-12.34,10.19a72.26,72.26,0,0,1-11.56-.83l.22-2.69c5.67.27,8,.32,11.45.32,6.39-.05,8.54-1,8.54-7,0-5-1.54-6.39-5.29-7.11l-8.09-1.7c-5.46-1.11-7.44-4.36-7.44-10.3,0-8.93,3.8-10,12-9.86A62.28,62.28,0,0,1,449.69,139.59Z"/><path class="cls-3" d="M481.57,139.59l-.28,2.64c-3.25-.16-7.05-.33-10.52-.33-6,0-8.53.22-8.53,6.78,0,4.68,1.54,6.28,5.23,7l7.93,1.65c5.78,1.16,7.71,4.3,7.71,10.41,0,8.87-4,10.19-12.34,10.19a72.4,72.4,0,0,1-11.56-.83l.22-2.69c5.67.27,8,.32,11.46.32,6.38-.05,8.53-1,8.53-7,0-5-1.54-6.39-5.29-7.11l-8.09-1.7c-5.45-1.11-7.44-4.36-7.44-10.3,0-8.93,3.8-10,12-9.86A62.28,62.28,0,0,1,481.57,139.59Z"/><path class="cls-3" d="M520.22,158.31c0,14.71-3.8,19.66-14.64,19.66s-14.65-4.95-14.65-19.66,3.8-19.65,14.65-19.65S520.22,143.61,520.22,158.31Zm-25.55,0c0,12.34,2.76,16.47,10.91,16.47s10.84-4.13,10.84-16.47-2.69-16.46-10.84-16.46S494.67,146,494.67,158.31Z"/><path class="cls-3" d="M552.22,177.31l-3.64-11.95c-1.1-3.14-2.81-4.35-5.45-4.35-4.07,0-7.21,0-9.42-.11v16.41h-3.58v-38a117.07,117.07,0,0,1,12.73-.44c8.53,0,11.84,2.31,11.84,10.84,0,6.39-2,9.2-7,9.92v.22c1.93.55,3.69,2.42,4.52,5.39l3.85,12.06Zm-9.36-19.44c6-.05,8.2-1.76,8.2-8s-2.15-7.93-8.2-7.93c-3.75,0-6.94,0-9.15.11v15.8Z"/><path class="cls-3" d="M565.05,177.31v-38h3.58v38Z"/><path class="cls-3" d="M583.49,164.76l-4.18,12.55h-3.75l12.73-36.95a1.45,1.45,0,0,1,1.43-1h4.13a1.46,1.46,0,0,1,1.43,1L608,177.31h-3.74l-4.19-12.55Zm10.08-19.5c-.33-1-.71-2.09-1-3.08H591c-.33,1-.66,2-1,3.08l-5.45,16.36H599Z"/></g></g></svg>